<?xml version="1.0" encoding="iso-8859-1"?>
<!-- Generator: Adobe Illustrator 17.1.0, SVG Export Plug-In . SVG Version: 6.00 Build 0)  -->
<!DOCTYPE svg PUBLIC "-//W3C//DTD SVG 1.1//EN" "http://www.w3.org/Graphics/SVG/1.1/DTD/svg11.dtd">
<svg version="1.1" id="Layer_1" xmlns="http://www.w3.org/2000/svg" xmlns:xlink="http://www.w3.org/1999/xlink" x="0px" y="0px"
	 viewBox="0 0 70 70" style="enable-background:new 0 0 70 70;" xml:space="preserve">
<ellipse style="fill:#B3B3B3;" cx="19.323" cy="20.354" rx="19.221" ry="11.977"/>
<ellipse style="fill:#B3B3B3;" cx="31.034" cy="22.957" rx="19.221" ry="11.977"/>
<ellipse style="fill:#B3B3B3;" cx="50.552" cy="20.354" rx="19.221" ry="11.977"/>
<polygon style="fill:#FFFFFD;" points="32,23.559 32,30.185 29.699,37 31.086,37 27.814,42 29.785,42 24.912,48.997 26.798,43.168 
	25.638,43.01 27.959,39.571 28.65,34.843 27.257,34.728 "/>
<polygon style="fill:#FFFFFD;" points="43,18.354 43,24.98 40.109,32 41.496,32 38.223,36 40.195,36 35.322,43.394 37.208,37.765 
	36.047,37.706 38.368,34.317 39.06,29.614 37.962,29.51 "/>
<polygon style="fill:#FFFFFD;" points="28,14.45 28,21.077 25.796,29 27.182,29 23.91,32 25.881,32 21.009,39.442 22.894,33.837 
	21.734,33.79 24.055,30.407 24.746,25.707 23.305,25.605 "/>
<ellipse style="fill:#B3B3B3;" cx="33.636" cy="12.547" rx="19.221" ry="11.977"/>
<ellipse style="fill:#B3B3B3;" cx="36.239" cy="19.053" rx="19.221" ry="11.977"/>
</svg>
