<?xml version="1.0" encoding="iso-8859-1"?>
<!-- Generator: Adobe Illustrator 17.1.0, SVG Export Plug-In . SVG Version: 6.00 Build 0)  -->
<!DOCTYPE svg PUBLIC "-//W3C//DTD SVG 1.1//EN" "http://www.w3.org/Graphics/SVG/1.1/DTD/svg11.dtd">
<svg version="1.1" id="Layer_1" xmlns="http://www.w3.org/2000/svg" xmlns:xlink="http://www.w3.org/1999/xlink" x="0px" y="0px"
	 viewBox="0 0 16 16" style="enable-background:new 0 0 16 16;" xml:space="preserve">
<image style="display:none;overflow:visible;" width="241" height="241" xlink:href="sun.png"  transform="matrix(0.0272 0 0 0.0272 7.1646 2.1646)">
</image>
<g>
	<path style="fill:#F5F5F5;" d="M12.709,7.691c-0.011,0-0.022,0.001-0.033,0.001C12.399,7.387,12,7.194,11.554,7.194
		c-0.189,0-0.369,0.036-0.536,0.099c-0.584-1.647-2.152-2.829-3.999-2.829c-1.647,0-3.075,0.939-3.779,2.309
		C1.58,6.83,0.251,8.189,0.251,9.862c0,1.709,1.386,3.095,3.095,3.095h9.364c1.454,0,2.633-1.179,2.633-2.633
		C15.342,8.87,14.163,7.691,12.709,7.691z"/>
</g>
</svg>
