<?xml version="1.0" encoding="iso-8859-1"?>
<!-- Generator: Adobe Illustrator 17.1.0, SVG Export Plug-In . SVG Version: 6.00 Build 0)  -->
<!DOCTYPE svg PUBLIC "-//W3C//DTD SVG 1.1//EN" "http://www.w3.org/Graphics/SVG/1.1/DTD/svg11.dtd">
<svg version="1.1" id="Layer_1" xmlns="http://www.w3.org/2000/svg" xmlns:xlink="http://www.w3.org/1999/xlink" x="0px" y="0px"
	 viewBox="0 0 16 16" style="enable-background:new 0 0 16 16;" xml:space="preserve">
<path style="fill:#F5F5F5;" d="M8.484,7.808c-0.01,0-0.019,0.001-0.029,0.001C8.267,6.421,7.081,5.351,5.641,5.351
	c-1.043,0-1.952,0.563-2.446,1.4C3.066,6.727,2.934,6.713,2.798,6.713c-1.194,0-2.162,0.968-2.162,2.162
	c0,1.194,0.968,2.162,2.162,2.162h5.686c0.892,0,1.615-0.723,1.615-1.615C10.099,8.531,9.376,7.808,8.484,7.808z M12.865,6.385
	c-0.127,0-0.251,0.013-0.372,0.032C12.044,4.959,10.687,3.9,9.082,3.9c-1.025,0-1.948,0.432-2.598,1.125
	c1.13,0.306,2.034,1.21,2.318,2.369c0.968,0.154,1.711,0.994,1.711,2.005c0,0.673-0.33,1.269-0.836,1.638h3.187
	c1.285,0,2.326-1.042,2.326-2.326C15.192,7.426,14.15,6.385,12.865,6.385z"/>
</svg>
