<?xml version="1.0" encoding="iso-8859-1"?>
<!-- Generator: Adobe Illustrator 17.1.0, SVG Export Plug-In . SVG Version: 6.00 Build 0)  -->
<!DOCTYPE svg PUBLIC "-//W3C//DTD SVG 1.1//EN" "http://www.w3.org/Graphics/SVG/1.1/DTD/svg11.dtd">
<svg version="1.1" id="Layer_1" xmlns="http://www.w3.org/2000/svg" xmlns:xlink="http://www.w3.org/1999/xlink" x="0px" y="0px"
	 viewBox="0 0 16 16" style="enable-background:new 0 0 16 16;" xml:space="preserve">
<path style="fill:#F5F5F5;" d="M1.681,9.444c0,2.102,1.997,3.805,4.461,3.805c2.464,0,4.461-1.703,4.461-3.805
	c0-2.102-4.461-8.569-4.461-8.569S1.681,7.342,1.681,9.444z"/>
<path style="opacity:0.41;fill:#F5F5F5;" d="M10.316,5.018c0,0-0.477,0.692-1.043,1.604c0.474,1.016,0.796,1.935,0.796,2.557
	c0,1.264-0.622,2.405-1.615,3.219c0.501,0.365,1.151,0.586,1.862,0.586c1.586,0,2.872-1.096,2.872-2.45
	C13.188,9.181,10.316,5.018,10.316,5.018z"/>
<path style="fill:#F5F5F5;" d="M6.142,0.875c0,0-4.461,6.467-4.461,8.569c0,2.102,1.997,3.805,4.461,3.805
	c2.464,0,4.461-1.703,4.461-3.805C10.604,7.342,6.142,0.875,6.142,0.875z"/>
<path style="display:none;fill:#B3B3B3;" d="M4.452,11.855c-0.989-0.506-1.604-1.43-1.604-2.411c0-0.461,0.327-1.332,0.973-2.589
	l0.712,0.266C3.714,8.716,3.626,9.277,3.626,9.444c0,0.75,0.47,1.455,1.226,1.842L4.452,11.855z"/>
</svg>
