<?xml version="1.0" encoding="iso-8859-1"?>
<!-- Generator: Adobe Illustrator 17.1.0, SVG Export Plug-In . SVG Version: 6.00 Build 0)  -->
<!DOCTYPE svg PUBLIC "-//W3C//DTD SVG 1.1//EN" "http://www.w3.org/Graphics/SVG/1.1/DTD/svg11.dtd">
<svg version="1.1" id="Layer_1" xmlns="http://www.w3.org/2000/svg" xmlns:xlink="http://www.w3.org/1999/xlink" x="0px" y="0px"
	 viewBox="0 0 16 16" style="enable-background:new 0 0 16 16;" xml:space="preserve">
<path style="fill:#F5F5F5;" d="M8.442,0.75C8.41,0.534,8.226,0.366,8,0.366c-0.226,0-0.411,0.168-0.442,0.385
	c-4.006,0.226-7.199,3.49-7.311,7.526c0.552-0.75,1.445-1.238,2.451-1.238c1.139,0,2.131,0.625,2.651,1.548
	c0.472-0.839,1.335-1.43,2.343-1.531v7.04c0,0.509-0.372,0.923-0.83,0.923c-0.457,0-0.83-0.414-0.83-0.923l-0.123-0.571H5.54
	l-0.123,0.571c0,0.848,0.648,1.538,1.445,1.538c0.797,0,1.446-0.69,1.446-1.538v-7.04c1.008,0.101,1.871,0.692,2.343,1.531
	c0.519-0.923,1.512-1.548,2.651-1.548c1.006,0,1.899,0.488,2.451,1.238C15.641,4.241,12.448,0.976,8.442,0.75z"/>
</svg>
