<?xml version="1.0" encoding="iso-8859-1"?>
<!-- Generator: Adobe Illustrator 17.1.0, SVG Export Plug-In . SVG Version: 6.00 Build 0)  -->
<!DOCTYPE svg PUBLIC "-//W3C//DTD SVG 1.1//EN" "http://www.w3.org/Graphics/SVG/1.1/DTD/svg11.dtd">
<svg version="1.1" id="Layer_1" xmlns="http://www.w3.org/2000/svg" xmlns:xlink="http://www.w3.org/1999/xlink" x="0px" y="0px"
	 viewBox="0 0 16 16" style="enable-background:new 0 0 16 16;" xml:space="preserve">
<g>
	<path style="fill:#F5F5F5;" d="M12.274,3.47c-0.01,0-0.02,0.001-0.03,0.001c-0.251-0.277-0.613-0.452-1.016-0.452
		c-0.171,0-0.335,0.033-0.486,0.09C10.214,1.618,8.793,0.547,7.12,0.547c-1.492,0-2.785,0.85-3.422,2.092
		C2.194,2.69,0.991,3.921,0.991,5.437c0,1.548,1.255,2.803,2.803,2.803h8.481c1.317,0,2.385-1.067,2.385-2.385
		C14.659,4.538,13.591,3.47,12.274,3.47z"/>
	<path style="fill:#F5F5F5;" d="M7.575,11.28c-0.1,0-0.2-0.038-0.277-0.115c-0.153-0.153-0.153-0.401,0-0.554l1.571-1.571
		c0.153-0.153,0.401-0.153,0.554,0c0.153,0.153,0.153,0.401,0,0.553l-1.571,1.571C7.775,11.242,7.675,11.28,7.575,11.28z"/>
	<path style="fill:#F5F5F5;" d="M10.087,13.01c-0.1,0-0.2-0.038-0.277-0.115c-0.153-0.153-0.153-0.401,0-0.554l1.179-1.179
		c0.153-0.153,0.401-0.153,0.553,0c0.153,0.153,0.153,0.401,0,0.554l-1.179,1.179C10.287,12.972,10.187,13.01,10.087,13.01z"/>
	<path style="fill:#F5F5F5;" d="M5.699,10.976c-0.1,0-0.2-0.038-0.277-0.115c-0.153-0.153-0.153-0.401,0-0.553l1.179-1.18
		c0.153-0.153,0.401-0.153,0.554,0c0.153,0.153,0.153,0.401,0,0.553l-1.179,1.18C5.9,10.938,5.8,10.976,5.699,10.976z"/>
	<path style="fill:#F5F5F5;" d="M7.82,13.096c-0.1,0-0.2-0.038-0.277-0.115c-0.153-0.153-0.153-0.401,0-0.554l1.571-1.571
		c0.153-0.153,0.401-0.153,0.554,0c0.153,0.153,0.153,0.401,0,0.553l-1.571,1.571C8.02,13.058,7.92,13.096,7.82,13.096z"/>
	<path style="fill:#F5F5F5;" d="M10.21,10.707c-0.1,0-0.2-0.038-0.277-0.115c-0.153-0.153-0.153-0.401,0-0.553l0.984-0.984
		c0.153-0.153,0.401-0.153,0.553,0c0.153,0.153,0.153,0.401,0,0.554l-0.984,0.984C10.41,10.669,10.31,10.707,10.21,10.707z"/>
	<path style="fill:#F5F5F5;" d="M3.098,11.516c-0.1,0-0.2-0.038-0.277-0.115c-0.153-0.153-0.153-0.401,0-0.554l1.571-1.571
		c0.153-0.153,0.401-0.153,0.554,0c0.153,0.153,0.153,0.401,0,0.553l-1.571,1.571C3.298,11.478,3.198,11.516,3.098,11.516z"/>
	<path style="fill:#F5F5F5;" d="M5.219,13.637c-0.1,0-0.2-0.038-0.277-0.115c-0.153-0.153-0.153-0.401,0-0.554l1.571-1.571
		c0.153-0.153,0.401-0.153,0.553,0c0.153,0.153,0.153,0.401,0,0.554l-1.571,1.571C5.419,13.599,5.319,13.637,5.219,13.637z"/>
	<path style="fill:#F5F5F5;" d="M3.343,13.332c-0.1,0-0.2-0.038-0.277-0.115c-0.153-0.153-0.153-0.401,0-0.554l1.571-1.57
		c0.153-0.153,0.401-0.153,0.554,0c0.153,0.153,0.153,0.401,0,0.553L3.62,13.217C3.543,13.294,3.443,13.332,3.343,13.332z"/>
</g>
</svg>
