<?xml version="1.0" encoding="iso-8859-1"?>
<!-- Generator: Adobe Illustrator 17.1.0, SVG Export Plug-In . SVG Version: 6.00 Build 0)  -->
<!DOCTYPE svg PUBLIC "-//W3C//DTD SVG 1.1//EN" "http://www.w3.org/Graphics/SVG/1.1/DTD/svg11.dtd">
<svg version="1.1" id="Layer_1" xmlns="http://www.w3.org/2000/svg" xmlns:xlink="http://www.w3.org/1999/xlink" x="0px" y="0px"
	 viewBox="0 0 16 16" style="enable-background:new 0 0 16 16;" xml:space="preserve">
<polygon style="fill:#F5F5F5;" points="13.625,8.978 13.13,8.122 11.66,8.971 9.106,7.496 11.66,6.021 13.13,6.871 13.625,6.015 
	12.648,5.45 14.142,4.588 13.648,3.732 12.154,4.595 12.154,3.467 11.166,3.467 11.166,5.166 8.611,6.64 8.611,3.691 10.083,2.842 
	9.588,1.986 8.611,2.55 8.611,0.825 7.623,0.825 7.623,2.55 6.646,1.986 6.152,2.842 7.623,3.691 7.623,6.64 5.069,5.166 
	5.069,3.467 4.08,3.467 4.08,4.595 2.587,3.732 2.092,4.588 3.586,5.45 2.609,6.015 3.104,6.871 4.574,6.021 7.129,7.496 
	4.574,8.971 3.104,8.122 2.61,8.978 3.586,9.542 2.092,10.404 2.587,11.26 4.08,10.397 4.08,11.525 5.069,11.525 5.069,9.827 
	7.623,8.352 7.623,11.301 6.152,12.151 6.646,13.006 7.623,12.443 7.623,14.168 8.611,14.168 8.611,12.443 9.588,13.006 
	10.083,12.151 8.611,11.301 8.611,8.352 11.166,9.827 11.166,11.525 12.154,11.525 12.154,10.397 13.648,11.26 14.142,10.404 
	12.648,9.542 "/>
</svg>
