<?xml version="1.0" encoding="iso-8859-1"?>
<!-- Generator: Adobe Illustrator 17.1.0, SVG Export Plug-In . SVG Version: 6.00 Build 0)  -->
<!DOCTYPE svg PUBLIC "-//W3C//DTD SVG 1.1//EN" "http://www.w3.org/Graphics/SVG/1.1/DTD/svg11.dtd">
<svg version="1.1" id="Layer_1" xmlns="http://www.w3.org/2000/svg" xmlns:xlink="http://www.w3.org/1999/xlink" x="0px" y="0px"
	 viewBox="0 0 16 16" style="enable-background:new 0 0 16 16;" xml:space="preserve">
<polygon style="fill:#FFFFFF;" points="5.276,14.933 7.951,10.6 5.414,11.367 8.257,6.311 10.256,6.396 7.191,10.194 9.392,9.703 
	"/>
<path style="fill:#F5F5F5;" d="M12.729,3.202c-0.01,0-0.02,0.001-0.031,0.001c-0.261-0.287-0.635-0.468-1.053-0.468
	c-0.178,0-0.347,0.034-0.504,0.093c-0.548-1.547-2.02-2.656-3.755-2.656C5.84,0.172,4.5,1.053,3.839,2.34
	c-1.558,0.053-2.806,1.329-2.806,2.9c0,1.605,1.301,2.905,2.905,2.905h8.791c1.365,0,2.472-1.107,2.472-2.472
	C15.201,4.309,14.095,3.202,12.729,3.202z"/>
</svg>
