<?xml version="1.0" encoding="iso-8859-1"?>
<!-- Generator: Adobe Illustrator 17.1.0, SVG Export Plug-In . SVG Version: 6.00 Build 0)  -->
<!DOCTYPE svg PUBLIC "-//W3C//DTD SVG 1.1//EN" "http://www.w3.org/Graphics/SVG/1.1/DTD/svg11.dtd">
<svg version="1.1" id="Layer_1" xmlns="http://www.w3.org/2000/svg" xmlns:xlink="http://www.w3.org/1999/xlink" x="0px" y="0px"
	 viewBox="0 0 16 16" style="enable-background:new 0 0 16 16;" xml:space="preserve">
<path style="fill:#FFFFFF;" d="M0,7h8c0,0,6.25-0.069,1.188-2.042C5.76,3.623,8.988,4.718,9.156,4.774
	c1.125,0.375,4.916,2.229-0.969,2.424C1.406,7.422,0,7,0,7z"/>
<path style="fill:#FFFFFF;" d="M4,7h8c0,0,6.25-0.125,1.188-2.594c-3.427-1.671-0.199-0.32-0.031-0.25
	c1.125,0.469,4.916,2.818-0.969,3.062C5.406,7.5,4,7,4,7z"/>
<path style="fill:#FFFFFF;" d="M0,8h6.245c0,0,4.879-0.024,0.927,1.528c-2.676,1.05-0.156,0.15-0.024,0.106
	c0.878-0.295,3.838-1.695-0.756-1.848C1.098,7.609,0,8,0,8z"/>
</svg>
